# xmcd
#
# Track frame offsets:
#  150
#  15147
#  28190
#  41060
#  56827
#  69541
#  81139
#  97278
#  113320
#  126216
#  142708
#  158404
#  172266
#  187262
#  208713
#  221499
#
# Disc length: 3143 seconds
#
# Revision: 0
# Processed by: cddbd v1.5.2PL0 Copyright (c) Steve Scherf et al.
# Submitted via: Collectorz.com_Music_Collector 6.11
#
DISCID=de0c4510
DTITLE=Linkin Bo Luckee - New Sheriff In Town
DYEAR=1900
DGENRE=Country
TTITLE0=Clinging To You
TTITLE1=You've Got No Heart
TTITLE2=Huggin' Thin Air
TTITLE3=Make Our Love Last
TTITLE4=You Don't Talk I Don't Listen
TTITLE5=I'm Cajun Cool
TTITLE6=Vertical Expression
TTITLE7=Tonight The Heartache's On Me
TTITLE8=All I Need
TTITLE9=I Can't Go Back To Austin
TTITLE10=I Just Want To Dance With You
TTITLE11=Crazy Dreams
TTITLE12=Seniorita Mas Fina
TTITLE13=Cowboy Peyton Place
TTITLE14=Land Of Enchantment
TTITLE15=What Do You Know About Love
EXTD=
EXTT0=
EXTT1=
EXTT2=
EXTT3=
EXTT4=
EXTT5=
EXTT6=
EXTT7=
EXTT8=
EXTT9=
EXTT10=
EXTT11=
EXTT12=
EXTT13=
EXTT14=
EXTT15=
PLAYORDER=
